PathFileType	4	(X/Y/Z)	/Users/niels/Desktop/University/Third Semester/Perception and Action/Exam/Gymnastics Motion Tracking/Code for Gym Tracking/Analyzed Data/Webcam_Backflip/id3_2_trajectory_Sports2D/id3_2_trajectory_Sports2D_px_person00.trc
DataRate	CameraRate	NumFrames	NumMarkers	Units	OrigDataRate	OrigDataStartFrame	OrigNumFrames
29.714285714285715	29.714285714285715	12	22	m	29.714285714285715	39	105
Frame#	Time	Hip			RHip			RKnee			RAnkle			RBigToe			RSmallToe			RHeel			LHip			LKnee			LAnkle			LBigToe			LSmallToe			LHeel			Neck			Head			Nose			RShoulder			RElbow			RWrist			LShoulder			LElbow			LWrist		
		X1	Y1	Z1	X2	Y2	Z2	X3	Y3	Z3	X4	Y4	Z4	X5	Y5	Z5	X6	Y6	Z6	X7	Y7	Z7	X8	Y8	Z8	X9	Y9	Z9	X10	Y10	Z10	X11	Y11	Z11	X12	Y12	Z12	X13	Y13	Z13	X14	Y14	Z14	X15	Y15	Z15	X16	Y16	Z16	X17	Y17	Z17	X18	Y18	Z18	X19	Y19	Z19	X20	Y20	Z20	X21	Y21	Z21	X22	Y22	Z22
39	1.3125	0.9586625182282056	-0.2678381566119708	0.0	0.9481121792432492	-0.2635631976330884	0.0	0.9880749464945227	-0.39809438363914906	0.0	0.9832136174365123	-0.5312357115078014	0.0	1.0318465227896767	-0.57683434183645	0.0	1.0216938803203555	-0.5799832065989291	0.0	0.9668317043550673	-0.547873352814154	0.0	0.9640995498972202	-0.2675229274188242	0.0	0.9898456667258626	-0.3956405412804469	0.0	0.972917481569336	-0.5265396242887855	0.0	1.0185015765901841	-0.5724196418806984	0.0	1.014421499019288	-0.5720694377373721	0.0	0.9568032148205091	-0.5405008703966356	0.0	1.0021407494962091	-0.1066348343113106	0.0	1.050064093435055	-0.032932689360182114	0.0	1.0491255982018068	-0.08352473088368056	0.0	0.9790638199065188	-0.09644271959950129	0.0	1.0241472898736892	-0.11626585403363168	0.0	1.1097752451607874	-0.11939704869013687	0.0	1.012024728116147	-0.13623812922927056	0.0	1.0573590901245504	-0.19024470975528596	0.0	1.1240445976502629	-0.1989265248604364	0.0
40	1.346153846153846	0.9682532580851924	-0.2762770240792955	0.0	0.9570445681820904	-0.27174444099598055	0.0	1.0039779843420196	-0.4046564231575614	0.0	1.004041962711031	-0.538580788299481	0.0	1.0554627669860923	-0.5807443563971824	0.0	1.0437437551150486	-0.5850572795649795	0.0	0.9869591345525733	-0.5553804319169967	0.0	0.9749634695311684	-0.27552220716761255	0.0	1.009036164623764	-0.4025951880008938	0.0	0.9907007143363912	-0.5324105274921765	0.0	1.0373167529093124	-0.5773388483754409	0.0	1.0355401197993357	-0.5756698059534705	0.0	0.9750716424595967	-0.5466845407413279	0.0	1.0140003191134483	-0.1150385662631878	0.0	1.062799446789502	-0.041614710197425235	0.0	1.0614292675521237	-0.09201461846171312	0.0	0.9917386142507707	-0.1072670465170351	0.0	1.0277496480401942	-0.13986232339554705	0.0	1.111342588729078	-0.15554091619953553	0.0	1.0214820763846884	-0.1446502210639457	0.0	1.0610992263993282	-0.2065716735154665	0.0	1.1260026636504352	-0.22766650376426992	0.0
41	1.3798076923076923	0.9776870346773991	-0.289249238696944	0.0	0.9662447666407428	-0.2847603357383719	0.0	1.0189472002267816	-0.41527967664988064	0.0	1.024912551879047	-0.5497025598228671	0.0	1.0794218658656693	-0.5884968850661326	0.0	1.066107050779997	-0.5938511173142632	0.0	1.0080958618321307	-0.5667696098915289	0.0	0.9855924571973101	-0.28793585930256654	0.0	1.0287100537407112	-0.413379572852751	0.0	1.0101605563962013	-0.5417704277893813	0.0	1.0581976497060643	-0.5856907980605981	0.0	1.0580840536813028	-0.5825774833968974	0.0	0.9952397458540942	-0.5571565015799467	0.0	1.0258718321036588	-0.12754437674069652	0.0	1.0756309561885442	-0.05426392920932664	0.0	1.0737504375865812	-0.1044926650066122	0.0	1.0040380755203997	-0.12342783038926351	0.0	1.0316628224128344	-0.16836624961389837	0.0	1.1106321521156148	-0.19818895261198047	0.0	1.0309021230137594	-0.15627620102949358	0.0	1.0644740930059806	-0.22493605125850685	0.0	1.1254604973598912	-0.25848828476086483	0.0
42	1.4134615384615383	0.98695012608496	-0.30692826258455447	0.0	0.9756910621530183	-0.3028218466806651	0.0	1.032999883703293	-0.43018795829286977	0.0	1.0458904212774838	-0.5648808698460641	0.0	1.1038131336724262	-0.6002154454994513	0.0	1.089117608065018	-0.6066106418221912	0.0	1.0305011843863012	-0.5825464526548662	0.0	0.9958065332407807	-0.3050411457062803	0.0	1.0478902765535036	-0.4279272454838239	0.0	1.031856388697556	-0.5551111263149344	0.0	1.0817418882422047	-0.5977767670659544	0.0	1.0822372236721296	-0.5937380578557105	0.0	1.018010638582006	-0.5729047757254719	0.0	1.0377313254422178	-0.14421822565166023	0.0	1.0884589049469946	-0.07079891097419311	0.0	1.0860831712964278	-0.12092905741322375	0.0	1.0158378343081913	-0.1445852051965968	0.0	1.03597516034484	-0.2012318609828257	0.0	1.1087482022238717	-0.24589672937493207	0.0	1.0404567268753535	-0.17145072541533207	0.0	1.0678817334193391	-0.2455733840618859	0.0	1.1232049455124897	-0.2912450888560597	0.0
43	1.4471153846153846	0.9961949497580994	-0.3294090668760574	0.0	0.9853321801110879	-0.32604207902445637	0.0	1.04635201586317	-0.44971568209122303	0.0	1.067193062709354	-0.5845601497584311	0.0	1.128453883419343	-0.6161675515218986	0.0	1.1128194892275172	-0.6236275024453807	0.0	1.054313532880869	-0.6033011770820209	0.0	1.0057315540496394	-0.3271275702367216	0.0	1.0656780473129632	-0.44642125426293816	0.0	1.0557231277949402	-0.5730697692518558	0.0	1.1077706522737596	-0.6141456952151272	0.0	1.1078152967325101	-0.6100885718362513	0.0	1.0436799225163274	-0.5949134806014141	0.0	1.0496282654941802	-0.16531214914404738	0.0	1.1010270680347738	-0.09125691649626988	0.0	1.098465574024183	-0.14147689188859297	0.0	1.0272530723531739	-0.17028460176182073	0.0	1.0407613827267534	-0.23770479768672453	0.0	1.1073025642399905	-0.2960599795870506	0.0	1.0505248886470708	-0.19079132103879218	0.0	1.0720580266982025	-0.2692496087791521	0.0	1.1208109071793302	-0.32625245241765444	0.0
44	1.4807692307692306	1.0057270204214244	-0.3567677328847557	0.0	0.9952696242179002	-0.3544747385030003	0.0	1.059261734716952	-0.47429705649206766	0.0	1.088799854297579	-0.6092724547325208	0.0	1.1529180916150932	-0.6368812070696995	0.0	1.136915834367472	-0.645339668144488	0.0	1.079275487205431	-0.6295638174129239	0.0	1.0156522044377871	-0.3544221157852006	0.0	1.081575301026141	-0.4693848232958486	0.0	1.0809139741085787	-0.5962441249957765	0.0	1.1353490078623794	-0.63541394468491	0.0	1.1341026084549706	-0.6321964304360111	0.0	1.0717088235215249	-0.6238154821734938	0.0	1.0615383226341883	-0.19119538999210822	0.0	1.1129348423147452	-0.11584561806349869	0.0	1.1107321441428406	-0.16645090731519005	0.0	1.03851936242212	-0.2002449114690006	0.0	1.0468102912851547	-0.27696985383593886	0.0	1.1084796366966114	-0.34575153611741505	0.0	1.0612744102986587	-0.21489564747109577	0.0	1.077994050655315	-0.2966802721245905	0.0	1.120592698932359	-0.3632653185590485	0.0
45	1.5144230769230769	1.015918720717823	-0.3892019384425076	0.0	1.005852736027143	-0.3881792305992141	0.0	1.071938607310784	-0.5045124102644187	0.0	1.1100923764656276	-0.6395467488316049	0.0	1.1764885672853194	-0.6630753684547953	0.0	1.1606754223129447	-0.6723237865119598	0.0	1.1043537631603704	-0.6616221632260115	0.0	1.0258306381752063	-0.38709549519076963	0.0	1.0954004921699338	-0.4977099269271813	0.0	1.1059088494677258	-0.625095391435562	0.0	1.1628895306253748	-0.6620262504879069	0.0	1.159747274038368	-0.6601067726430994	0.0	1.1003648412122624	-0.6594835254492748	0.0	1.07323379288719	-0.22220891188609615	0.0	1.1237531721164233	-0.14491907615004848	0.0	1.1224128701393545	-0.19622635424710513	0.0	1.0498160624781654	-0.23444188953798825	0.0	1.0557831472591854	-0.3181448183011327	0.0	1.1149014607493497	-0.39252387980037073	0.0	1.0723260975453701	-0.2441191098878129	0.0	1.0866388677220598	-0.3278161216521433	0.0	1.1251553809685293	-0.4005536534902204	0.0
46	1.548076923076923	1.0270761843504048	-0.427057660265398	0.0	1.017585711749284	-0.42725237690198675	0.0	1.0845157016421783	-0.541109933483129	0.0	1.129929997461235	-0.6759160197152203	0.0	1.1980041310734286	-0.6953864100719791	0.0	1.1827538684957595	-0.7050467031495442	0.0	1.1277290132207622	-0.6993554998346625	0.0	1.036411120062651	-0.4253047803334416	0.0	1.1071396204529513	-0.5325532955859454	0.0	1.1288509953487083	-0.6600737168258124	0.0	1.1884377030073587	-0.6940261919654399	0.0	1.182959014850952	-0.6933757071838449	0.0	1.1268541217182535	-0.7006852976765156	0.0	1.0842895234682643	-0.2585301532300297	0.0	1.1330920337877188	-0.17888669398279666	0.0	1.1328723402400802	-0.23108519619631737	0.0	1.0611843734770596	-0.27293641709072275	0.0	1.069486099161825	-0.35992767385394114	0.0	1.1286479788721995	-0.4337705927932907	0.0	1.082836512073165	-0.27857109272369346	0.0	1.0985456672432832	-0.3616244143926919	0.0	1.1364855363186583	-0.43516702794145196	0.0
47	1.5817307692307692	1.0392880354172778	-0.4705729228194869	0.0	1.030836366073441	-0.47170172668658716	0.0	1.0970406592061164	-0.584800234287864	0.0	1.1470879083805712	-0.7188331410595573	0.0	1.2159164495610892	-0.7339295490326412	0.0	1.2012218450478966	-0.7433975922845569	0.0	1.1473685566995773	-0.7420287275933172	0.0	1.047417269965434	-0.4690788794421823	0.0	1.1169457747668796	-0.5749502040375224	0.0	1.148035785329145	-0.7016527103570745	0.0	1.2101304567100304	-0.7308268270739111	0.0	1.2020349720452086	-0.7310405468723067	0.0	1.148153971543138	-0.7447030489563046	0.0	1.094205907188471	-0.3000319851029911	0.0	1.1406900689274893	-0.2180041928258073	0.0	1.1416024272025482	-0.27101449999519106	0.0	1.0725584926440055	-0.3156317847990557	0.0	1.0887311878576298	-0.4002862739192129	0.0	1.1497399606548466	-0.4660774951157669	0.0	1.0918742656987706	-0.3180633923529993	0.0	1.1134773595716436	-0.39610529999181204	0.0	1.1546257492572838	-0.4635255899488094	0.0
48	1.6153846153846154	1.0524008843716681	-0.5194696757730616	0.0	1.0455518550992031	-0.5211457030843116	0.0	1.1094788312868897	-0.6357019189857313	0.0	1.1607152303849526	-0.7681465908409397	0.0	1.2287478480578096	-0.7776419039728141	0.0	1.2140732047663276	-0.7860739099797363	0.0	1.1617451480748517	-0.7879334003545682	0.0	1.0588430693974957	-0.5180206722994282	0.0	1.1252021913322319	-0.6251153685713252	0.0	1.1624337538934018	-0.7498854698286248	0.0	1.2266815752080074	-0.7709000333487822	0.0	1.2160241903094329	-0.7713098161269286	0.0	1.1622036042212114	-0.7866909481923032	0.0	1.1025656843973297	-0.34608894607780993	0.0	1.1466110795341942	-0.2619768886655364	0.0	1.1485074712962169	-0.3154822553265283	0.0	1.083808473601062	-0.36199682567013464	0.0	1.112409781621426	-0.4366276780347907	0.0	1.1750798154634374	-0.48616771269702147	0.0	1.0987755911178878	-0.3619340517870611	0.0	1.1300107387095313	-0.42855693973962194	0.0	1.1766212951386097	-0.4821995525322863	0.0
49	1.6490384615384615	1.0661617732687376	-0.5725170288909891	0.0	1.0612404325536462	-0.574345859376969	0.0	1.121784381293543	-0.6925752637003725	0.0	1.1706553563294786	-0.8222418925338887	0.0	1.2357973829636961	-0.8236308397261608	0.0	1.2201833549300842	-0.8300772383519456	0.0	1.1703480154022443	-0.8341157630485401	0.0	1.0707869852729952	-0.5708995003156235	0.0	1.132576048833251	-0.6816883839670204	0.0	1.1720457969611944	-0.8036403542863065	0.0	1.2377699310967376	-0.811498866946069	0.0	1.2252318311373458	-0.811194443594847	0.0	1.1688182408228913	-0.8193064996349906	0.0	1.1091749545266625	-0.3952908322243314	0.0	1.151252682610743	-0.3095269419501244	0.0	1.1539253815160149	-0.3631265765792579	0.0	1.094660207218014	-0.41070803092655556	0.0	1.13717593547586	-0.46650784245580107	0.0	1.1986075734961292	-0.49272043846013874	0.0	1.103485664344048	-0.4089353950214723	0.0	1.1455670027283371	-0.4564830546129405	0.0	1.1967885374567337	-0.4894750423414239	0.0
50	1.6826923076923077	1.0803035947928872	-0.6271833453119726	0.0	1.0771766875285618	-0.6287771486482288	0.0	1.1340462029593892	-0.7522812323760336	0.0	1.1775491681372552	-0.877630630824417	0.0	1.2376789710648186	-0.8673820811052524	0.0	1.2202081599323893	-0.87108747149287	0.0	1.1739119100977333	-0.8768821303057561	0.0	1.083384008075344	-0.6252688087605439	0.0	1.1399872956710866	-0.7413442656550541	0.0	1.1778048291866987	-0.8600299532183107	0.0	1.2440790577046767	-0.849009223237656	0.0	1.231110483330595	-0.8467551622440112	0.0	1.1696376200066465	-0.8340142507954197	0.0	1.1140898203752378	-0.4451879479568134	0.0	1.1549673422477076	-0.3581414800708008	0.0	1.1582961842042458	-0.41142567513432976	0.0	1.1045175847217243	-0.45943552761765843	0.0	1.1580988039181543	-0.4886052069046772	0.0	1.2130838334027634	-0.4876519885947888	0.0	1.1067228285567323	-0.4570918622232906	0.0	1.1571716318156644	-0.47855673320740816	0.0	1.2086310674670335	-0.48667750901774076	0.0
